<svg width="16" height="16" viewBox="0 0 16 16" fill="none" xmlns="http://www.w3.org/2000/svg">
<path fill-rule="evenodd" clip-rule="evenodd" d="M0.269889 3.46792C0.200194 3.53757 0.144906 3.62027 0.107185 3.7113C0.0694643 3.80232 0.0500488 3.89989 0.0500488 3.99842C0.0500488 4.09695 0.0694643 4.19452 0.107185 4.28554C0.144906 4.37657 0.200194 4.45927 0.269889 4.52892L3.46989 7.72892C3.53904 7.80058 3.62177 7.85776 3.71326 7.89711C3.80474 7.93646 3.90315 7.95719 4.00273 7.9581C4.10231 7.95902 4.20108 7.94009 4.29327 7.90242C4.38546 7.86475 4.46922 7.8091 4.53968 7.73872C4.61013 7.66833 4.66586 7.58462 4.70361 7.49246C4.74137 7.40031 4.76039 7.30156 4.75957 7.20197C4.75875 7.10239 4.73811 7.00397 4.69885 6.91245C4.65959 6.82092 4.60249 6.73814 4.53089 6.66892L2.61089 4.74892H12.0009C12.1998 4.74892 12.3906 4.6699 12.5312 4.52925C12.6719 4.3886 12.7509 4.19783 12.7509 3.99892C12.7509 3.80001 12.6719 3.60924 12.5312 3.46859C12.3906 3.32794 12.1998 3.24892 12.0009 3.24892H2.60989L4.52989 1.32892C4.66237 1.18674 4.73449 0.998698 4.73106 0.804397C4.72764 0.610096 4.64892 0.42471 4.51151 0.287297C4.3741 0.149884 4.18871 0.071172 3.99441 0.0677438C3.80011 0.0643156 3.61206 0.136439 3.46989 0.268919L0.269889 3.46792ZM12.5299 8.26792L15.7299 11.4679C15.7996 11.5376 15.8549 11.6203 15.8926 11.7113C15.9303 11.8023 15.9497 11.8999 15.9497 11.9984C15.9497 12.097 15.9303 12.1945 15.8926 12.2855C15.8549 12.3766 15.7996 12.4593 15.7299 12.5289L12.5299 15.7289C12.4607 15.8006 12.378 15.8578 12.2865 15.8971C12.195 15.9365 12.0966 15.9572 11.997 15.9581C11.8975 15.959 11.7987 15.9401 11.7065 15.9024C11.6143 15.8648 11.5306 15.8091 11.4601 15.7387C11.3896 15.6683 11.3339 15.5846 11.2962 15.4925C11.2584 15.4003 11.2394 15.3016 11.2402 15.202C11.241 15.1024 11.2617 15.004 11.3009 14.9124C11.3402 14.8209 11.3973 14.7381 11.4689 14.6689L13.3889 12.7489H3.99889C3.79998 12.7489 3.60921 12.6699 3.46856 12.5292C3.32791 12.3886 3.24889 12.1978 3.24889 11.9989C3.24889 11.8 3.32791 11.6092 3.46856 11.4686C3.60921 11.3279 3.79998 11.2489 3.99889 11.2489H13.3889L11.4689 9.32892C11.3364 9.18674 11.2643 8.9987 11.2677 8.8044C11.2711 8.6101 11.3499 8.42471 11.4873 8.2873C11.6247 8.14988 11.8101 8.07117 12.0044 8.06774C12.1987 8.06432 12.3867 8.13644 12.5289 8.26892L12.5299 8.26792Z" fill="#74767A"/>
</svg>
