<svg width="24" height="24" viewBox="0 0 24 24" fill="none" xmlns="http://www.w3.org/2000/svg">
<g clip-path="url(#clip0_4059_5562)">
<rect width="24" height="24" rx="12" transform="matrix(-1 0 0 1 24 0)" fill="#E9EDF1"/>
<path d="M13.6976 12.0883L10.6262 9.01658C10.5367 8.92659 10.4865 8.80472 10.4867 8.67776C10.487 8.55079 10.5376 8.42911 10.6275 8.33946C10.7171 8.24942 10.8388 8.19867 10.9659 8.19837C11.0929 8.19807 11.2149 8.24824 11.3049 8.33786L14.7021 11.735C14.7913 11.8246 14.8414 11.946 14.8416 12.0724C14.8417 12.1989 14.7918 12.3204 14.7027 12.4102L14.7021 12.4108C14.6997 12.4132 14.6974 12.4155 14.695 12.4179L11.2857 15.7887C11.0992 15.9753 10.8003 15.9788 10.6179 15.7967C10.4358 15.6143 10.4393 15.3158 10.6262 15.1289L13.6976 12.0883Z" fill="#1C1B1F"/>
</g>
<defs>
<clipPath id="clip0_4059_5562">
<rect width="24" height="24" rx="12" transform="matrix(-1 0 0 1 24 0)" fill="white"/>
</clipPath>
</defs>
</svg>
